<svg id="Layer_1" data-name="Layer 1" xmlns="http://www.w3.org/2000/svg" viewBox="0 0 400 400"><defs><style>.cls-1{fill:#010101;}</style></defs><path class="cls-1" d="M200.55,93.52c58.48,0,105.93,47.45,105.93,107A106,106,0,0,1,200.55,306.48c-59.58,0-107-47.45-107-105.93A106.44,106.44,0,0,1,200.55,93.52Zm0,22.07c-47.45,0-85,37.51-85,85,0,46.35,37.51,83.86,85,83.86a83.81,83.81,0,0,0,83.86-83.86C284.41,153.1,246.9,115.59,200.55,115.59Z"/><path class="cls-1" d="M189.52,10.76c0-14.35,22.07-14.35,22.07,0V64.83c0,14.34-22.07,14.34-22.07,0Z"/><path class="cls-1" d="M58.21,73.66c-9.93-9.94,5.51-25.38,15.45-15.45l38.62,38.62c9.93,9.93-5.52,25.38-15.45,15.45Z"/><path class="cls-1" d="M10.76,211.59c-14.35,0-14.35-22.07,0-22.07H64.83c14.34,0,14.34,22.07,0,22.07Z"/><path class="cls-1" d="M73.66,341.79c-9.94,9.93-25.38-5.51-15.45-15.45l38.62-38.62c9.93-9.93,25.38,5.52,15.45,15.45Z"/><path class="cls-1" d="M211.59,389.24c0,14.35-22.07,14.35-22.07,0V335.17c0-14.34,22.07-14.34,22.07,0Z"/><path class="cls-1" d="M341.79,326.34c9.93,9.94-5.51,25.38-15.45,15.45l-38.62-38.62c-9.93-9.93,5.52-25.38,15.45-15.45Z"/><path class="cls-1" d="M389.24,189.52c14.35,0,14.35,22.07,0,22.07H335.17c-14.34,0-14.34-22.07,0-22.07Z"/><path class="cls-1" d="M326.34,58.21c9.94-9.93,25.38,5.51,15.45,15.45l-38.62,38.62c-9.93,9.93-25.38-5.52-15.45-15.45Z"/></svg>